<svg id="svg" version="1.1" xmlns="http://www.w3.org/2000/svg" xmlns:xlink="http://www.w3.org/1999/xlink" width="400" height="400" viewBox="0, 0, 400,400"><g id="svgg"><path id="path0" d="M254.400 183.043 C 254.400 281.786,254.434 286.871,255.100 286.592 C 255.485 286.431,256.690 286.127,257.779 285.917 C 258.867 285.707,260.122 285.280,260.568 284.968 C 261.013 284.655,261.688 284.400,262.068 284.400 C 262.447 284.400,263.604 283.950,264.638 283.400 C 265.673 282.850,266.762 282.400,267.060 282.400 C 267.357 282.400,267.600 282.232,267.600 282.027 C 267.600 281.822,267.968 281.537,268.417 281.395 C 269.240 281.133,273.667 278.273,274.931 277.186 C 277.044 275.369,280.253 271.993,281.157 270.636 C 281.731 269.776,282.513 268.606,282.896 268.036 C 283.278 267.466,283.794 266.550,284.041 266.000 C 284.289 265.450,284.831 264.260,285.246 263.356 C 285.660 262.452,286.000 261.408,286.000 261.036 C 286.000 260.664,286.315 259.784,286.700 259.080 C 287.745 257.169,287.792 108.800,286.748 107.200 C 286.389 106.650,285.972 105.660,285.822 105.000 C 285.447 103.357,283.835 100.135,281.819 97.000 C 279.703 93.710,269.395 84.800,267.704 84.800 C 267.463 84.800,267.207 84.659,267.133 84.487 C 267.060 84.315,265.920 83.670,264.600 83.053 C 263.280 82.435,261.534 81.586,260.721 81.165 C 259.907 80.744,258.917 80.399,258.521 80.398 C 258.124 80.396,257.284 80.126,256.654 79.798 C 256.024 79.469,255.259 79.200,254.954 79.200 C 254.483 79.200,254.400 94.812,254.400 183.043 M137.400 161.006 C 136.520 161.320,134.990 161.688,134.000 161.823 C 131.995 162.095,128.141 163.482,127.169 164.281 C 126.821 164.567,126.307 164.800,126.026 164.800 C 125.745 164.800,124.950 165.248,124.258 165.796 C 123.566 166.345,122.576 167.110,122.057 167.496 C 121.539 167.883,120.639 168.727,120.057 169.371 C 119.476 170.015,118.685 170.870,118.300 171.271 C 117.915 171.672,117.600 172.180,117.600 172.400 C 117.600 172.620,117.271 173.129,116.869 173.531 C 116.119 174.281,114.400 177.554,114.400 178.232 C 114.400 178.441,114.064 179.239,113.653 180.006 C 111.862 183.346,111.800 185.289,111.800 237.600 C 111.800 292.593,111.720 291.047,114.826 296.000 C 115.033 296.330,115.393 297.046,115.626 297.592 C 115.859 298.137,116.175 298.677,116.327 298.792 C 116.480 298.906,117.136 299.720,117.786 300.600 C 120.565 304.365,128.627 310.400,130.877 310.400 C 131.117 310.400,132.052 310.739,132.956 311.154 C 137.090 313.050,141.513 313.216,188.200 313.228 C 230.490 313.239,242.274 313.472,243.305 314.316 C 243.577 314.539,245.060 314.852,246.600 315.011 C 248.140 315.170,249.876 315.543,250.458 315.839 C 251.040 316.135,252.300 316.497,253.258 316.644 C 254.216 316.791,255.486 317.156,256.080 317.456 C 256.674 317.755,257.491 318.000,257.896 318.000 C 258.300 318.000,259.337 318.360,260.200 318.800 C 261.063 319.240,262.001 319.600,262.285 319.600 C 262.928 319.600,262.970 316.107,262.354 313.800 C 262.119 312.920,261.718 311.283,261.463 310.161 C 261.208 309.040,260.796 307.870,260.546 307.561 C 260.297 307.253,259.970 306.427,259.820 305.728 C 259.671 305.028,259.290 304.241,258.974 303.979 C 258.658 303.717,258.400 303.312,258.400 303.080 C 258.400 302.111,254.598 297.188,251.695 294.400 C 248.515 291.345,247.771 290.760,246.000 289.920 C 245.450 289.659,244.730 289.233,244.400 288.973 C 244.070 288.714,243.080 288.275,242.200 287.998 C 241.320 287.722,240.420 287.356,240.200 287.185 C 239.980 287.014,238.740 286.679,237.445 286.440 C 236.150 286.202,234.817 285.780,234.484 285.503 C 234.009 285.109,226.232 284.973,198.676 284.878 C 168.938 284.775,163.301 284.666,162.357 284.178 C 161.743 283.860,160.846 283.600,160.364 283.600 C 159.882 283.600,158.748 283.260,157.844 282.846 C 156.940 282.431,155.750 281.892,155.200 281.648 C 153.269 280.794,148.580 277.229,147.855 276.064 C 147.665 275.759,147.170 275.170,146.755 274.755 C 146.340 274.340,146.000 273.848,146.000 273.661 C 146.000 273.475,145.663 272.934,145.251 272.458 C 144.839 271.983,144.381 270.840,144.233 269.917 C 144.086 268.995,143.748 267.978,143.482 267.659 C 142.852 266.899,142.560 217.704,143.163 213.919 C 144.055 208.333,145.027 205.023,146.428 202.800 C 146.636 202.470,147.028 201.750,147.300 201.200 C 147.926 199.931,152.309 195.560,153.613 194.903 C 154.156 194.630,154.870 194.255,155.200 194.070 C 158.807 192.053,156.309 192.216,187.000 192.000 C 207.941 191.853,215.618 191.675,216.231 191.323 C 216.688 191.061,218.038 190.725,219.231 190.577 C 220.424 190.429,221.763 190.082,222.206 189.806 C 222.649 189.531,223.582 189.180,224.278 189.027 C 224.975 188.874,225.745 188.508,225.989 188.214 C 226.233 187.919,226.880 187.566,227.427 187.429 C 228.606 187.133,229.003 186.815,232.400 183.452 C 235.865 180.021,238.000 176.995,238.000 175.515 C 238.000 175.225,238.389 174.271,238.864 173.394 C 239.625 171.989,239.732 171.138,239.764 166.200 L 239.800 160.600 189.400 160.517 C 146.550 160.446,138.760 160.519,137.400 161.006 " stroke="none" fill="#f2ba2c" fill-rule="evenodd"></path><path id="path1" d="M174.800 0.400 C 174.800 0.646,172.788 0.800,169.563 0.800 C 164.662 0.800,164.312 0.851,164.116 1.600 C 163.926 2.327,163.570 2.400,160.200 2.400 C 156.830 2.400,156.474 2.473,156.284 3.200 C 156.098 3.911,155.738 4.000,153.037 4.000 C 150.604 4.000,150.000 4.119,150.000 4.600 C 150.000 5.042,149.539 5.200,148.250 5.200 C 145.704 5.200,144.000 5.621,144.000 6.250 C 144.000 6.650,143.402 6.800,141.814 6.800 C 140.038 6.800,139.548 6.950,139.200 7.600 C 138.860 8.235,138.362 8.400,136.786 8.400 C 135.067 8.400,134.800 8.507,134.800 9.200 C 134.800 9.911,134.533 10.000,132.400 10.000 C 130.267 10.000,130.000 10.089,130.000 10.800 C 130.000 11.503,129.733 11.600,127.800 11.600 C 125.867 11.600,125.600 11.697,125.600 12.400 C 125.600 13.067,125.333 13.200,124.000 13.200 C 122.667 13.200,122.400 13.333,122.400 14.000 C 122.400 14.703,122.133 14.800,120.200 14.800 C 118.602 14.800,118.000 14.950,118.000 15.349 C 118.000 15.680,117.365 15.999,116.400 16.154 C 115.365 16.319,114.800 16.620,114.800 17.005 C 114.800 17.421,114.369 17.600,113.363 17.600 C 112.262 17.600,111.876 17.787,111.716 18.400 C 111.557 19.006,111.170 19.200,110.116 19.200 C 109.062 19.200,108.675 19.394,108.516 20.000 C 108.359 20.601,107.970 20.800,106.953 20.800 C 105.867 20.800,105.600 20.958,105.600 21.600 C 105.600 22.267,105.333 22.400,104.000 22.400 C 102.667 22.400,102.400 22.533,102.400 23.200 C 102.400 23.824,102.133 24.000,101.187 24.000 C 100.513 24.000,99.879 24.250,99.759 24.564 C 99.639 24.874,99.105 25.237,98.571 25.372 C 98.037 25.506,97.600 25.882,97.600 26.208 C 97.600 26.603,97.189 26.800,96.363 26.800 C 95.462 26.800,95.068 27.017,94.916 27.600 C 94.781 28.118,94.370 28.400,93.753 28.400 C 93.229 28.400,92.440 28.760,92.000 29.200 C 91.560 29.640,90.930 30.000,90.600 30.000 C 90.267 30.000,90.000 30.356,90.000 30.800 C 90.000 31.442,89.733 31.600,88.647 31.600 C 87.630 31.600,87.241 31.799,87.084 32.400 C 86.969 32.840,86.600 33.200,86.264 33.200 C 85.929 33.200,85.540 33.560,85.400 34.000 C 85.222 34.560,84.795 34.800,83.973 34.800 C 83.328 34.800,82.800 34.984,82.800 35.209 C 82.800 35.433,82.350 35.822,81.800 36.073 C 81.250 36.323,80.800 36.770,80.800 37.064 C 80.800 37.359,80.440 37.600,80.000 37.600 C 79.467 37.600,79.200 37.867,79.200 38.400 C 79.200 39.028,78.933 39.200,77.963 39.200 C 77.062 39.200,76.668 39.417,76.516 40.000 C 76.400 40.443,75.970 40.800,75.553 40.800 C 75.067 40.800,74.800 41.083,74.800 41.600 C 74.800 42.133,74.533 42.400,74.000 42.400 C 73.467 42.400,73.200 42.667,73.200 43.200 C 73.200 43.733,72.933 44.000,72.400 44.000 C 71.960 44.000,71.600 44.250,71.600 44.557 C 71.600 44.863,71.106 45.237,70.503 45.389 C 69.462 45.650,68.844 46.095,67.297 47.700 C 66.926 48.085,66.392 48.400,66.111 48.400 C 65.830 48.400,65.600 48.760,65.600 49.200 C 65.600 49.733,65.333 50.000,64.800 50.000 C 64.267 50.000,64.000 50.267,64.000 50.800 C 64.000 51.333,63.733 51.600,63.200 51.600 C 62.667 51.600,62.400 51.867,62.400 52.400 C 62.400 52.933,62.133 53.200,61.600 53.200 C 61.067 53.200,60.800 53.467,60.800 54.000 C 60.800 54.533,60.533 54.800,60.000 54.800 C 59.560 54.800,59.200 55.049,59.200 55.353 C 59.200 55.658,58.840 56.001,58.400 56.116 C 57.960 56.231,57.600 56.591,57.600 56.916 C 57.600 57.241,57.240 57.601,56.800 57.716 C 56.360 57.831,56.000 58.212,56.000 58.563 C 56.000 58.913,55.730 59.200,55.400 59.200 C 55.067 59.200,54.800 59.556,54.800 60.000 C 54.800 60.533,54.533 60.800,54.000 60.800 C 53.467 60.800,53.200 61.067,53.200 61.600 C 53.200 62.133,52.933 62.400,52.400 62.400 C 51.867 62.400,51.600 62.667,51.600 63.200 C 51.600 63.733,51.333 64.000,50.800 64.000 C 50.267 64.000,50.000 64.267,50.000 64.800 C 50.000 65.333,49.733 65.600,49.200 65.600 C 48.667 65.600,48.400 65.867,48.400 66.400 C 48.400 66.844,48.133 67.200,47.800 67.200 C 47.470 67.200,47.200 67.476,47.200 67.813 C 47.200 68.149,46.935 68.527,46.612 68.651 C 46.289 68.775,45.803 69.489,45.532 70.238 C 45.261 70.987,44.805 71.600,44.520 71.600 C 44.234 71.600,44.000 71.960,44.000 72.400 C 44.000 72.933,43.733 73.200,43.200 73.200 C 42.667 73.200,42.400 73.467,42.400 74.000 C 42.400 74.533,42.133 74.800,41.600 74.800 C 41.067 74.800,40.800 75.067,40.800 75.600 C 40.800 76.040,40.538 76.400,40.218 76.400 C 39.870 76.400,39.531 76.962,39.374 77.800 C 39.184 78.813,38.902 79.200,38.355 79.200 C 37.867 79.200,37.600 79.482,37.600 80.000 C 37.600 80.440,37.364 80.800,37.076 80.800 C 36.788 80.800,36.113 81.790,35.576 83.000 C 35.039 84.209,34.285 85.302,33.900 85.427 C 33.515 85.552,33.200 85.981,33.200 86.380 C 33.200 86.780,32.840 87.201,32.400 87.316 C 31.817 87.468,31.600 87.862,31.600 88.763 C 31.600 89.733,31.428 90.000,30.800 90.000 C 30.261 90.000,30.000 90.267,30.000 90.817 C 30.000 91.266,29.640 92.020,29.200 92.492 C 28.760 92.964,28.400 93.656,28.400 94.029 C 28.400 94.402,28.040 94.801,27.600 94.916 C 27.017 95.068,26.800 95.462,26.800 96.363 C 26.800 97.154,26.599 97.600,26.243 97.600 C 25.629 97.600,25.200 98.441,25.200 99.645 C 25.200 100.074,24.930 100.529,24.600 100.655 C 24.270 100.782,24.000 101.205,24.000 101.596 C 24.000 101.987,23.640 102.401,23.200 102.516 C 22.587 102.676,22.400 103.062,22.400 104.163 C 22.400 105.333,22.252 105.600,21.600 105.600 C 20.958 105.600,20.800 105.867,20.800 106.953 C 20.800 107.970,20.601 108.359,20.000 108.516 C 19.387 108.676,19.200 109.062,19.200 110.163 C 19.200 111.125,19.016 111.600,18.643 111.600 C 18.021 111.600,17.600 112.444,17.600 113.689 C 17.600 114.141,17.318 114.718,16.973 114.970 C 16.629 115.222,16.243 116.202,16.116 117.149 C 15.989 118.095,15.641 118.963,15.343 119.077 C 15.014 119.203,14.800 119.901,14.800 120.843 C 14.800 122.133,14.663 122.400,14.000 122.400 C 13.352 122.400,13.200 122.667,13.200 123.800 C 13.200 124.667,12.895 125.505,12.400 126.000 C 11.875 126.525,11.600 127.333,11.600 128.353 C 11.600 129.570,11.427 129.952,10.800 130.116 C 10.123 130.293,10.000 130.662,10.000 132.516 C 10.000 134.370,9.877 134.739,9.200 134.916 C 8.532 135.091,8.400 135.462,8.400 137.163 C 8.400 138.637,8.246 139.200,7.843 139.200 C 7.085 139.200,6.800 140.093,6.800 142.470 C 6.800 143.868,6.558 144.781,6.000 145.491 C 5.455 146.184,5.200 147.114,5.200 148.411 C 5.200 149.734,5.017 150.385,4.600 150.545 C 4.132 150.724,4.000 151.518,4.000 154.141 C 4.000 157.170,3.920 157.528,3.200 157.716 C 2.471 157.907,2.400 158.262,2.400 161.716 C 2.400 165.170,2.329 165.525,1.600 165.716 C 0.851 165.912,0.800 166.262,0.800 171.163 C 0.800 174.388,0.646 176.400,0.400 176.400 C 0.138 176.400,0.000 184.267,0.000 199.200 C 0.000 214.133,0.138 222.000,0.400 222.000 C 0.647 222.000,0.800 224.051,0.800 227.353 C 0.800 232.370,0.850 232.720,1.600 232.916 C 2.330 233.107,2.400 233.462,2.400 236.966 C 2.400 240.313,2.503 240.896,3.200 241.493 C 3.863 242.061,4.000 242.673,4.000 245.069 C 4.000 247.079,4.165 248.058,4.542 248.280 C 4.866 248.471,5.177 249.643,5.312 251.183 C 5.460 252.863,5.760 253.927,6.170 254.227 C 6.604 254.545,6.800 255.338,6.800 256.782 C 6.800 258.538,6.929 258.909,7.600 259.084 C 8.273 259.260,8.400 259.630,8.400 261.420 C 8.400 263.195,8.532 263.588,9.200 263.800 C 9.871 264.013,10.000 264.405,10.000 266.227 C 10.000 268.133,10.098 268.400,10.800 268.400 C 11.495 268.400,11.600 268.667,11.600 270.437 C 11.600 272.138,11.732 272.509,12.400 272.684 C 13.027 272.848,13.200 273.230,13.200 274.447 C 13.200 275.733,13.337 276.000,14.000 276.000 C 14.694 276.000,14.800 276.267,14.800 278.013 C 14.800 279.356,14.984 280.096,15.353 280.237 C 15.657 280.354,16.019 281.158,16.158 282.025 C 16.320 283.040,16.621 283.600,17.005 283.600 C 17.421 283.600,17.600 284.031,17.600 285.037 C 17.600 286.138,17.787 286.524,18.400 286.684 C 19.006 286.843,19.200 287.230,19.200 288.284 C 19.200 289.338,19.394 289.725,20.000 289.884 C 20.597 290.040,20.800 290.430,20.800 291.420 C 20.800 292.395,21.012 292.813,21.600 293.000 C 22.195 293.189,22.400 293.605,22.400 294.627 C 22.400 295.733,22.555 296.000,23.200 296.000 C 23.848 296.000,24.000 296.267,24.000 297.400 C 24.000 298.170,24.184 298.800,24.409 298.800 C 24.633 298.800,25.022 299.250,25.273 299.800 C 25.523 300.350,25.970 300.800,26.264 300.800 C 26.608 300.800,26.800 301.292,26.800 302.173 C 26.800 303.195,27.005 303.611,27.600 303.800 C 28.040 303.940,28.400 304.387,28.400 304.794 C 28.400 305.961,28.836 306.800,29.443 306.800 C 29.749 306.800,30.000 307.160,30.000 307.600 C 30.000 308.133,30.267 308.400,30.800 308.400 C 31.452 308.400,31.600 308.667,31.600 309.837 C 31.600 310.938,31.787 311.324,32.400 311.484 C 32.843 311.600,33.200 312.030,33.200 312.447 C 33.200 312.933,33.483 313.200,34.000 313.200 C 34.648 313.200,34.800 313.467,34.800 314.600 C 34.800 315.578,34.981 316.000,35.400 316.000 C 35.730 316.000,36.000 316.287,36.000 316.637 C 36.000 316.988,36.360 317.369,36.800 317.484 C 37.240 317.599,37.600 318.004,37.600 318.385 C 37.600 318.765,37.960 319.402,38.400 319.800 C 38.840 320.198,39.200 320.844,39.200 321.235 C 39.200 321.626,39.560 322.060,40.000 322.200 C 40.440 322.340,40.800 322.729,40.800 323.064 C 40.800 323.400,41.160 323.769,41.600 323.884 C 42.040 323.999,42.400 324.342,42.400 324.647 C 42.400 324.951,42.760 325.200,43.200 325.200 C 43.845 325.200,44.000 325.467,44.000 326.573 C 44.000 327.595,44.205 328.011,44.800 328.200 C 45.240 328.340,45.600 328.717,45.600 329.040 C 45.600 329.362,45.863 329.726,46.185 329.850 C 46.506 329.973,46.879 330.417,47.012 330.837 C 47.145 331.257,47.491 331.600,47.780 331.600 C 48.070 331.600,48.401 331.960,48.516 332.400 C 48.631 332.840,49.012 333.200,49.363 333.200 C 49.713 333.200,50.000 333.487,50.000 333.837 C 50.000 334.188,50.360 334.569,50.800 334.684 C 51.240 334.799,51.600 335.142,51.600 335.447 C 51.600 335.751,51.960 336.000,52.400 336.000 C 52.933 336.000,53.200 336.267,53.200 336.800 C 53.200 337.333,53.467 337.600,54.000 337.600 C 54.533 337.600,54.800 337.867,54.800 338.400 C 54.800 338.844,55.067 339.200,55.400 339.200 C 55.730 339.200,56.000 339.487,56.000 339.837 C 56.000 340.188,56.360 340.569,56.800 340.684 C 57.243 340.800,57.600 341.230,57.600 341.647 C 57.600 342.133,57.883 342.400,58.400 342.400 C 58.865 342.400,59.200 342.667,59.200 343.037 C 59.200 343.388,59.560 343.769,60.000 343.884 C 60.440 343.999,60.800 344.342,60.800 344.647 C 60.800 344.951,61.160 345.200,61.600 345.200 C 62.133 345.200,62.400 345.467,62.400 346.000 C 62.400 346.533,62.667 346.800,63.200 346.800 C 63.733 346.800,64.000 347.067,64.000 347.600 C 64.000 348.040,64.258 348.400,64.573 348.400 C 64.888 348.400,65.260 348.760,65.400 349.200 C 65.540 349.640,65.912 350.000,66.227 350.000 C 66.542 350.000,66.800 350.287,66.800 350.637 C 66.800 350.988,67.160 351.369,67.600 351.484 C 68.040 351.599,68.400 351.930,68.400 352.220 C 68.400 352.509,68.743 352.855,69.163 352.988 C 69.583 353.121,70.023 353.484,70.142 353.793 C 70.261 354.103,70.997 354.476,71.779 354.622 C 72.597 354.776,73.200 355.125,73.200 355.445 C 73.200 355.750,73.560 356.000,74.000 356.000 C 74.533 356.000,74.800 356.267,74.800 356.800 C 74.800 357.240,75.058 357.600,75.373 357.600 C 75.688 357.600,76.060 357.960,76.200 358.400 C 76.340 358.840,76.802 359.200,77.227 359.200 C 77.652 359.200,78.000 359.451,78.000 359.757 C 78.000 360.369,78.841 360.800,80.033 360.800 C 80.533 360.800,80.800 361.078,80.800 361.600 C 80.800 362.133,81.067 362.400,81.600 362.400 C 82.050 362.400,82.400 362.667,82.400 363.010 C 82.400 363.372,82.903 363.721,83.634 363.867 C 84.313 364.003,84.963 364.358,85.077 364.657 C 85.192 364.956,85.605 365.200,85.996 365.200 C 86.387 365.200,86.801 365.560,86.916 366.000 C 87.057 366.540,87.462 366.800,88.159 366.800 C 88.760 366.800,89.403 367.135,89.693 367.600 C 89.968 368.040,90.509 368.400,90.896 368.400 C 91.333 368.400,91.600 368.703,91.600 369.200 C 91.600 369.867,91.867 370.000,93.200 370.000 C 94.533 370.000,94.800 370.133,94.800 370.800 C 94.800 371.333,95.067 371.600,95.600 371.600 C 96.040 371.600,96.400 371.862,96.400 372.182 C 96.400 372.530,96.962 372.869,97.800 373.026 C 98.570 373.171,99.200 373.520,99.200 373.802 C 99.200 374.406,100.082 374.800,101.433 374.800 C 102.026 374.800,102.400 375.032,102.400 375.400 C 102.400 375.817,102.819 376.000,103.773 376.000 C 104.795 376.000,105.211 376.205,105.400 376.800 C 105.589 377.395,106.005 377.600,107.027 377.600 C 108.133 377.600,108.400 377.755,108.400 378.400 C 108.400 379.022,108.667 379.200,109.597 379.200 C 110.360 379.200,110.974 379.490,111.293 380.000 C 111.649 380.570,112.226 380.800,113.296 380.800 C 114.533 380.800,114.800 380.942,114.800 381.600 C 114.800 382.248,115.067 382.400,116.200 382.400 C 117.130 382.400,117.600 382.587,117.600 382.957 C 117.600 383.602,118.452 384.000,119.833 384.000 C 120.426 384.000,120.800 384.232,120.800 384.600 C 120.800 385.060,121.308 385.200,122.973 385.200 C 124.795 385.200,125.187 385.329,125.400 386.000 C 125.587 386.588,126.005 386.800,126.980 386.800 C 127.970 386.800,128.360 387.003,128.516 387.600 C 128.693 388.277,129.062 388.400,130.916 388.400 C 132.770 388.400,133.139 388.523,133.316 389.200 C 133.490 389.866,133.862 390.000,135.536 390.000 C 137.195 390.000,137.590 390.140,137.800 390.800 C 138.010 391.461,138.405 391.600,140.083 391.600 C 141.528 391.600,142.254 391.795,142.608 392.278 C 142.960 392.760,143.867 393.005,145.752 393.125 C 147.534 393.238,148.400 393.459,148.400 393.800 C 148.400 394.472,149.700 394.788,152.500 394.795 C 154.275 394.799,154.800 394.937,154.800 395.400 C 154.800 395.891,155.484 396.000,158.553 396.000 C 161.970 396.000,162.325 396.072,162.516 396.800 C 162.711 397.544,163.062 397.600,167.559 397.600 C 171.960 397.600,172.438 397.672,172.893 398.400 C 173.367 399.159,173.826 399.200,181.896 399.200 C 187.299 399.200,190.400 399.346,190.400 399.600 C 190.400 399.856,193.867 400.000,200.000 400.000 C 206.133 400.000,209.600 399.856,209.600 399.600 C 209.600 399.346,212.679 399.200,218.037 399.200 C 226.138 399.200,226.483 399.168,226.684 398.400 C 226.878 397.659,227.230 397.600,231.447 397.600 C 235.467 397.600,236.094 397.506,236.800 396.800 C 237.465 396.135,238.133 396.000,240.757 396.000 C 243.084 396.000,243.971 395.854,244.128 395.444 C 244.279 395.050,245.293 394.844,247.601 394.739 C 250.181 394.622,250.942 394.446,251.250 393.896 C 251.540 393.378,252.157 393.200,253.657 393.200 C 255.338 393.200,255.710 393.067,255.884 392.400 C 256.063 391.714,256.430 391.600,258.447 391.600 C 260.205 391.600,260.988 391.412,261.541 390.859 C 261.963 390.437,263.110 390.024,264.202 389.901 C 265.370 389.769,266.261 389.433,266.480 389.042 C 266.710 388.633,267.377 388.400,268.324 388.400 C 269.374 388.400,269.953 388.166,270.307 387.600 C 270.683 386.998,271.240 386.800,272.557 386.800 C 273.970 386.800,274.347 386.646,274.516 386.000 C 274.676 385.387,275.062 385.200,276.163 385.200 C 276.953 385.200,277.600 385.032,277.600 384.827 C 277.600 384.418,278.225 384.201,280.500 383.817 C 281.430 383.660,282.000 383.343,282.000 382.982 C 282.000 382.581,282.446 382.400,283.437 382.400 C 284.538 382.400,284.924 382.213,285.084 381.600 C 285.248 380.973,285.630 380.800,286.847 380.800 C 288.133 380.800,288.400 380.663,288.400 380.000 C 288.400 379.348,288.667 379.200,289.837 379.200 C 290.938 379.200,291.324 379.013,291.484 378.400 C 291.640 377.803,292.030 377.600,293.020 377.600 C 293.995 377.600,294.413 377.388,294.600 376.800 C 294.789 376.205,295.205 376.000,296.227 376.000 C 297.181 376.000,297.600 375.817,297.600 375.400 C 297.600 375.070,297.926 374.800,298.325 374.800 C 298.723 374.800,299.436 374.440,299.908 374.000 C 300.380 373.560,301.061 373.200,301.421 373.200 C 301.781 373.200,302.169 372.840,302.284 372.400 C 302.441 371.799,302.830 371.600,303.847 371.600 C 304.933 371.600,305.200 371.442,305.200 370.800 C 305.200 370.267,305.467 370.000,306.000 370.000 C 306.440 370.000,307.160 369.640,307.600 369.200 C 308.040 368.760,308.760 368.400,309.200 368.400 C 309.733 368.400,310.000 368.133,310.000 367.600 C 310.000 366.972,310.267 366.800,311.237 366.800 C 312.138 366.800,312.532 366.583,312.684 366.000 C 312.801 365.551,313.230 365.200,313.659 365.200 C 314.080 365.200,314.529 364.930,314.655 364.600 C 314.782 364.270,315.093 364.000,315.347 364.000 C 315.600 364.000,316.032 363.640,316.307 363.200 C 316.597 362.735,317.240 362.400,317.841 362.400 C 318.538 362.400,318.943 362.140,319.084 361.600 C 319.200 361.157,319.630 360.800,320.047 360.800 C 320.533 360.800,320.800 360.517,320.800 360.000 C 320.800 359.489,321.067 359.200,321.538 359.200 C 321.944 359.200,322.602 358.840,323.000 358.400 C 323.398 357.960,324.056 357.600,324.462 357.600 C 324.933 357.600,325.200 357.311,325.200 356.800 C 325.200 356.267,325.467 356.000,326.000 356.000 C 326.440 356.000,326.800 355.751,326.800 355.447 C 326.800 355.142,327.160 354.799,327.600 354.684 C 328.040 354.569,328.400 354.188,328.400 353.837 C 328.400 353.467,328.735 353.200,329.200 353.200 C 329.733 353.200,330.000 352.933,330.000 352.400 C 330.000 351.867,330.267 351.600,330.800 351.600 C 331.240 351.600,331.929 351.271,332.331 350.869 C 332.732 350.468,333.362 350.023,333.731 349.882 C 334.099 349.741,334.400 349.349,334.400 349.013 C 334.400 348.667,334.748 348.400,335.200 348.400 C 335.733 348.400,336.000 348.133,336.000 347.600 C 336.000 347.067,336.267 346.800,336.800 346.800 C 337.333 346.800,337.600 346.533,337.600 346.000 C 337.600 345.467,337.867 345.200,338.400 345.200 C 338.840 345.200,339.200 344.942,339.200 344.627 C 339.200 344.312,339.560 343.940,340.000 343.800 C 340.440 343.660,340.800 343.309,340.800 343.020 C 340.800 342.730,341.160 342.399,341.600 342.284 C 342.040 342.169,342.400 341.809,342.400 341.484 C 342.400 341.159,342.760 340.799,343.200 340.684 C 343.640 340.569,344.000 340.188,344.000 339.837 C 344.000 339.487,344.270 339.200,344.600 339.200 C 344.933 339.200,345.200 338.844,345.200 338.400 C 345.200 337.867,345.467 337.600,346.000 337.600 C 346.533 337.600,346.800 337.333,346.800 336.800 C 346.800 336.267,347.067 336.000,347.600 336.000 C 348.117 336.000,348.400 335.733,348.400 335.247 C 348.400 334.830,348.757 334.400,349.200 334.284 C 349.640 334.169,350.000 333.788,350.000 333.437 C 350.000 333.087,350.262 332.800,350.582 332.800 C 350.930 332.800,351.269 332.238,351.426 331.400 C 351.616 330.387,351.898 330.000,352.445 330.000 C 352.933 330.000,353.200 329.718,353.200 329.200 C 353.200 328.667,353.467 328.400,354.000 328.400 C 354.533 328.400,354.800 328.133,354.800 327.600 C 354.800 327.156,355.067 326.800,355.400 326.800 C 355.733 326.800,356.000 326.444,356.000 326.000 C 356.000 325.467,356.267 325.200,356.800 325.200 C 357.244 325.200,357.600 324.933,357.600 324.600 C 357.600 324.270,357.960 323.640,358.400 323.200 C 358.840 322.760,359.200 322.040,359.200 321.600 C 359.200 321.067,359.467 320.800,360.000 320.800 C 360.517 320.800,360.800 320.533,360.800 320.047 C 360.800 319.630,361.157 319.200,361.600 319.084 C 362.040 318.969,362.400 318.588,362.400 318.237 C 362.400 317.887,362.760 317.240,363.200 316.800 C 363.640 316.360,364.000 315.730,364.000 315.400 C 364.000 315.070,364.184 314.800,364.410 314.800 C 364.635 314.800,364.991 314.350,365.200 313.800 C 365.409 313.250,365.855 312.800,366.190 312.800 C 366.620 312.800,366.800 312.388,366.800 311.400 C 366.800 310.267,366.952 310.000,367.600 310.000 C 368.097 310.000,368.400 309.733,368.400 309.296 C 368.400 308.909,368.760 308.368,369.200 308.093 C 369.710 307.774,370.000 307.160,370.000 306.397 C 370.000 305.467,370.178 305.200,370.800 305.200 C 371.420 305.200,371.600 304.933,371.600 304.014 C 371.600 303.238,371.876 302.680,372.400 302.400 C 372.840 302.165,373.200 301.727,373.200 301.429 C 373.200 301.130,373.460 300.786,373.778 300.664 C 374.096 300.542,374.476 299.803,374.622 299.021 C 374.776 298.203,375.125 297.600,375.445 297.600 C 375.809 297.600,376.000 297.135,376.000 296.247 C 376.000 295.230,376.199 294.841,376.800 294.684 C 377.413 294.524,377.600 294.138,377.600 293.037 C 377.600 291.867,377.748 291.600,378.400 291.600 C 379.067 291.600,379.200 291.333,379.200 290.000 C 379.200 288.667,379.333 288.400,380.000 288.400 C 380.667 288.400,380.800 288.133,380.800 286.800 C 380.800 285.467,380.933 285.200,381.600 285.200 C 382.222 285.200,382.400 284.933,382.400 284.000 C 382.400 283.333,382.756 282.444,383.200 282.000 C 383.640 281.560,384.000 280.769,384.000 280.243 C 384.000 279.716,384.270 279.182,384.600 279.055 C 385.021 278.894,385.200 278.238,385.200 276.859 C 385.200 275.230,385.337 274.858,386.000 274.684 C 386.609 274.525,386.800 274.138,386.800 273.064 C 386.800 272.005,386.999 271.591,387.600 271.400 C 388.271 271.187,388.400 270.795,388.400 268.973 C 388.400 267.067,388.498 266.800,389.200 266.800 C 389.901 266.800,390.000 266.533,390.000 264.647 C 390.000 262.830,390.125 262.461,390.800 262.284 C 391.480 262.106,391.600 261.738,391.600 259.837 C 391.600 258.206,391.749 257.600,392.150 257.600 C 392.779 257.600,393.200 255.896,393.200 253.350 C 393.200 252.121,393.366 251.600,393.757 251.600 C 394.553 251.600,394.800 250.692,394.800 247.767 C 394.800 245.752,394.929 245.200,395.400 245.200 C 395.886 245.200,396.000 244.556,396.000 241.803 C 396.000 238.840,396.102 238.343,396.800 237.907 C 397.506 237.466,397.600 236.974,397.600 233.704 C 397.600 230.533,397.715 229.885,398.400 229.200 C 399.139 228.461,399.200 227.867,399.200 221.400 C 399.200 217.000,399.349 214.400,399.600 214.400 C 399.860 214.400,400.000 209.067,400.000 199.200 C 400.000 189.333,399.860 184.000,399.600 184.000 C 399.349 184.000,399.200 181.454,399.200 177.163 C 399.200 170.662,399.161 170.315,398.400 170.116 C 397.659 169.922,397.600 169.570,397.600 165.353 C 397.600 161.067,397.553 160.800,396.800 160.800 C 396.056 160.800,396.000 160.533,396.000 157.000 C 396.000 153.889,395.891 153.200,395.400 153.200 C 394.928 153.200,394.800 152.644,394.800 150.600 C 394.800 148.593,394.629 147.829,394.052 147.252 C 393.535 146.735,393.248 145.732,393.123 144.008 C 392.994 142.221,392.752 141.405,392.271 141.136 C 391.781 140.862,391.600 140.215,391.600 138.743 C 391.600 137.062,391.467 136.690,390.800 136.516 C 390.123 136.339,390.000 135.970,390.000 134.116 C 390.000 132.262,389.877 131.893,389.200 131.716 C 388.573 131.552,388.400 131.170,388.400 129.953 C 388.400 128.933,388.125 128.125,387.600 127.600 C 387.105 127.105,386.800 126.267,386.800 125.400 C 386.800 124.267,386.648 124.000,386.000 124.000 C 385.306 124.000,385.200 123.733,385.200 121.987 C 385.200 120.644,385.016 119.904,384.647 119.763 C 384.343 119.646,383.981 118.842,383.842 117.975 C 383.680 116.960,383.379 116.400,382.995 116.400 C 382.579 116.400,382.400 115.969,382.400 114.963 C 382.400 113.862,382.213 113.476,381.600 113.316 C 380.994 113.157,380.800 112.770,380.800 111.716 C 380.800 110.662,380.606 110.275,380.000 110.116 C 379.394 109.957,379.200 109.570,379.200 108.516 C 379.200 107.462,379.006 107.075,378.400 106.916 C 377.799 106.759,377.600 106.370,377.600 105.353 C 377.600 104.267,377.442 104.000,376.800 104.000 C 376.151 104.000,376.000 103.733,376.000 102.587 C 376.000 101.701,375.777 101.089,375.400 100.945 C 375.070 100.818,374.796 100.509,374.791 100.257 C 374.786 100.006,374.430 99.350,374.000 98.800 C 373.570 98.250,373.214 97.468,373.209 97.063 C 373.204 96.657,372.840 96.231,372.400 96.116 C 371.826 95.966,371.600 95.570,371.600 94.716 C 371.600 93.862,371.374 93.466,370.800 93.316 C 370.360 93.201,370.000 92.811,370.000 92.450 C 370.000 92.088,369.640 91.568,369.200 91.293 C 368.690 90.974,368.400 90.360,368.400 89.597 C 368.400 88.667,368.222 88.400,367.600 88.400 C 367.067 88.400,366.800 88.133,366.800 87.600 C 366.800 87.160,366.440 86.440,366.000 86.000 C 365.560 85.560,365.200 84.930,365.200 84.600 C 365.200 84.270,364.930 84.000,364.600 84.000 C 364.267 84.000,364.000 83.644,364.000 83.200 C 364.000 82.667,363.733 82.400,363.200 82.400 C 362.621 82.400,362.400 82.133,362.400 81.433 C 362.400 80.083,362.006 79.200,361.404 79.200 C 361.123 79.200,360.799 78.840,360.684 78.400 C 360.569 77.960,360.209 77.600,359.884 77.600 C 359.559 77.600,359.199 77.240,359.084 76.800 C 358.969 76.360,358.588 76.000,358.237 76.000 C 357.792 76.000,357.600 75.628,357.600 74.763 C 357.600 73.862,357.383 73.468,356.800 73.316 C 356.357 73.200,356.000 72.770,356.000 72.353 C 356.000 71.939,355.751 71.600,355.447 71.600 C 355.142 71.600,354.799 71.240,354.684 70.800 C 354.569 70.360,354.209 70.000,353.884 70.000 C 353.559 70.000,353.199 69.640,353.084 69.200 C 352.969 68.760,352.588 68.400,352.237 68.400 C 351.867 68.400,351.600 68.065,351.600 67.600 C 351.600 67.067,351.333 66.800,350.800 66.800 C 350.272 66.800,350.000 66.533,350.000 66.016 C 350.000 65.584,349.669 64.909,349.264 64.516 C 348.859 64.122,348.415 63.485,348.277 63.100 C 348.138 62.715,347.770 62.400,347.459 62.400 C 347.148 62.400,346.799 62.040,346.684 61.600 C 346.569 61.160,346.188 60.800,345.837 60.800 C 345.487 60.800,345.200 60.610,345.200 60.378 C 345.200 59.855,340.187 54.800,339.669 54.800 C 339.462 54.800,339.199 54.440,339.084 54.000 C 338.969 53.560,338.609 53.200,338.284 53.200 C 337.959 53.200,337.599 52.840,337.484 52.400 C 337.369 51.960,336.988 51.600,336.637 51.600 C 336.287 51.600,336.000 51.342,336.000 51.027 C 336.000 50.712,335.595 50.326,335.100 50.170 C 334.605 50.013,333.965 49.551,333.677 49.143 C 333.390 48.734,332.826 48.400,332.424 48.400 C 332.022 48.400,331.599 48.040,331.484 47.600 C 331.369 47.160,330.988 46.800,330.637 46.800 C 330.287 46.800,330.000 46.542,330.000 46.227 C 330.000 45.912,329.640 45.540,329.200 45.400 C 328.760 45.260,328.400 44.888,328.400 44.573 C 328.400 44.258,328.040 44.000,327.600 44.000 C 327.067 44.000,326.800 43.733,326.800 43.200 C 326.800 42.756,326.533 42.400,326.200 42.400 C 325.870 42.400,325.240 42.040,324.800 41.600 C 324.360 41.160,323.640 40.800,323.200 40.800 C 322.667 40.800,322.400 40.533,322.400 40.000 C 322.400 39.467,322.133 39.200,321.600 39.200 C 321.150 39.200,320.800 38.933,320.800 38.590 C 320.800 38.255,320.350 37.809,319.800 37.600 C 319.250 37.391,318.800 37.044,318.800 36.828 C 318.800 36.613,318.170 36.318,317.400 36.174 C 316.598 36.023,316.000 35.674,316.000 35.355 C 316.000 35.050,315.640 34.800,315.200 34.800 C 314.667 34.800,314.400 34.533,314.400 34.000 C 314.400 33.352,314.133 33.200,313.000 33.200 C 311.867 33.200,311.600 33.048,311.600 32.400 C 311.600 31.883,311.333 31.600,310.847 31.600 C 310.430 31.600,310.000 31.243,309.884 30.800 C 309.724 30.187,309.338 30.000,308.237 30.000 C 307.067 30.000,306.800 29.852,306.800 29.200 C 306.800 28.667,306.533 28.400,306.000 28.400 C 305.560 28.400,305.200 28.150,305.200 27.845 C 305.200 27.529,304.611 27.179,303.839 27.034 C 303.090 26.893,302.379 26.523,302.260 26.211 C 302.140 25.899,301.403 25.524,300.621 25.378 C 299.803 25.224,299.200 24.875,299.200 24.555 C 299.200 24.205,298.758 24.000,298.003 24.000 C 297.240 24.000,296.626 23.710,296.307 23.200 C 296.032 22.760,295.581 22.400,295.304 22.400 C 295.027 22.400,294.440 22.040,294.000 21.600 C 293.560 21.160,292.880 20.800,292.489 20.800 C 292.098 20.800,291.470 20.440,291.093 20.000 C 290.716 19.560,289.975 19.200,289.447 19.200 C 288.918 19.200,288.386 18.940,288.264 18.622 C 288.142 18.304,287.366 17.917,286.540 17.762 C 285.714 17.607,284.670 17.135,284.219 16.711 C 283.661 16.187,282.987 15.990,282.100 16.091 C 281.060 16.210,280.800 16.095,280.800 15.520 C 280.800 14.947,280.474 14.800,279.200 14.800 C 277.867 14.800,277.600 14.667,277.600 14.000 C 277.600 13.319,277.333 13.200,275.803 13.200 C 274.440 13.200,273.886 13.007,273.507 12.400 C 273.156 11.838,272.574 11.600,271.550 11.600 C 270.430 11.600,270.045 11.415,269.884 10.800 C 269.707 10.123,269.338 10.000,267.484 10.000 C 265.630 10.000,265.261 9.877,265.084 9.200 C 264.909 8.532,264.538 8.400,262.837 8.400 C 261.363 8.400,260.800 8.246,260.800 7.843 C 260.800 7.106,259.915 6.800,257.787 6.800 C 256.611 6.800,255.924 6.594,255.686 6.168 C 255.446 5.738,254.511 5.464,252.766 5.310 C 251.239 5.176,250.070 4.865,249.880 4.542 C 249.657 4.164,248.672 4.000,246.627 4.000 C 244.030 4.000,243.669 3.908,243.484 3.200 C 243.293 2.468,242.938 2.400,239.334 2.400 C 235.826 2.400,235.338 2.312,234.893 1.600 C 234.438 0.872,233.960 0.800,229.597 0.800 C 226.666 0.800,224.800 0.644,224.800 0.400 C 224.800 0.138,216.200 0.000,199.800 0.000 C 183.400 0.000,174.800 0.138,174.800 0.400 M259.226 78.625 C 259.571 78.936,260.471 79.307,261.226 79.450 C 261.982 79.593,262.870 79.935,263.200 80.210 C 263.530 80.486,264.370 80.832,265.067 80.980 C 265.763 81.128,266.433 81.508,266.554 81.824 C 266.676 82.141,267.141 82.400,267.587 82.400 C 268.034 82.400,268.742 82.742,269.161 83.161 C 269.579 83.579,270.299 84.041,270.761 84.187 C 271.222 84.334,271.600 84.712,271.600 85.027 C 271.600 85.342,271.960 85.600,272.400 85.600 C 272.840 85.600,273.529 85.929,273.931 86.331 C 274.332 86.732,274.962 87.177,275.331 87.318 C 275.699 87.459,276.000 87.851,276.000 88.187 C 276.000 88.533,276.348 88.800,276.800 88.800 C 277.240 88.800,277.600 89.058,277.600 89.373 C 277.600 89.688,277.960 90.060,278.400 90.200 C 278.840 90.340,279.200 90.595,279.200 90.767 C 279.200 90.940,280.116 92.051,281.235 93.237 C 282.354 94.423,283.515 95.980,283.815 96.697 C 284.114 97.414,284.548 98.000,284.780 98.000 C 285.011 98.000,285.200 98.360,285.200 98.800 C 285.200 99.240,285.560 99.960,286.000 100.400 C 286.473 100.873,286.800 101.733,286.800 102.504 C 286.800 103.374,287.066 103.974,287.600 104.307 C 288.247 104.711,288.400 105.240,288.400 107.072 C 288.400 108.668,288.607 109.566,289.100 110.111 C 290.188 111.312,290.188 255.088,289.100 256.290 C 288.606 256.835,288.400 257.733,288.400 259.335 C 288.400 261.113,288.226 261.757,287.600 262.293 C 287.101 262.720,286.800 263.473,286.800 264.293 C 286.800 265.113,286.499 265.866,286.000 266.293 C 285.560 266.670,285.200 267.274,285.200 267.635 C 285.200 267.996,284.840 268.750,284.400 269.309 C 283.960 269.869,283.600 270.433,283.600 270.563 C 283.600 270.693,283.285 271.142,282.900 271.560 C 282.515 271.979,281.390 273.270,280.400 274.430 C 279.410 275.591,278.358 276.733,278.062 276.970 C 277.766 277.206,277.083 277.805,276.544 278.300 C 276.005 278.795,275.302 279.200,274.982 279.200 C 274.662 279.200,274.400 279.441,274.400 279.736 C 274.400 280.030,273.950 280.477,273.400 280.727 C 272.850 280.978,272.400 281.352,272.400 281.560 C 272.400 281.767,271.848 282.058,271.173 282.206 C 270.498 282.354,269.856 282.711,269.745 282.998 C 269.635 283.286,268.944 283.634,268.211 283.772 C 267.477 283.909,266.776 284.287,266.651 284.611 C 266.515 284.965,265.899 285.200,265.109 285.200 C 264.226 285.200,263.628 285.463,263.293 286.000 C 262.915 286.605,262.360 286.800,261.016 286.800 C 259.778 286.800,259.127 287.001,258.869 287.463 C 258.286 288.504,254.042 288.746,253.335 287.778 C 252.624 286.806,252.529 79.654,253.239 78.326 C 253.755 77.363,258.065 77.578,259.226 78.625 M240.685 159.285 C 242.392 159.902,242.546 160.546,242.318 166.083 C 242.173 169.613,242.000 170.611,241.468 171.000 C 241.030 171.320,240.800 172.059,240.800 173.144 C 240.800 174.267,240.542 175.058,240.000 175.600 C 239.560 176.040,239.200 176.745,239.200 177.167 C 239.200 178.359,238.769 179.200,238.157 179.200 C 237.851 179.200,237.600 179.545,237.600 179.967 C 237.600 181.159,237.169 182.000,236.557 182.000 C 236.251 182.000,236.000 182.194,236.000 182.431 C 236.000 182.991,233.791 185.200,233.231 185.200 C 232.994 185.200,232.800 185.476,232.800 185.813 C 232.800 186.149,232.499 186.541,232.131 186.682 C 231.762 186.823,231.132 187.268,230.731 187.669 C 230.329 188.071,229.640 188.400,229.200 188.400 C 228.760 188.400,228.400 188.651,228.400 188.957 C 228.400 189.602,227.548 190.000,226.167 190.000 C 225.610 190.000,225.200 190.235,225.200 190.553 C 225.200 191.143,224.022 191.586,222.431 191.595 C 221.899 191.598,221.179 191.852,220.831 192.161 C 219.627 193.231,210.194 193.697,184.000 193.982 C 169.810 194.136,158.183 194.293,158.161 194.331 C 157.806 194.963,156.053 196.000,155.339 196.000 C 154.762 196.000,154.400 196.236,154.400 196.613 C 154.400 196.949,154.085 197.338,153.700 197.477 C 152.851 197.782,149.600 201.057,149.600 201.607 C 149.600 201.823,149.330 202.000,149.000 202.000 C 148.667 202.000,148.400 202.356,148.400 202.800 C 148.400 203.240,148.040 203.960,147.600 204.400 C 147.106 204.894,146.800 205.733,146.800 206.597 C 146.800 207.560,146.552 208.148,146.000 208.493 C 145.212 208.985,145.200 209.426,145.200 238.913 C 145.200 268.281,145.215 268.849,146.000 269.692 C 146.440 270.164,146.800 270.884,146.800 271.292 C 146.800 271.700,147.160 272.420,147.600 272.892 C 148.040 273.364,148.400 273.987,148.400 274.275 C 148.400 274.564,148.687 274.800,149.037 274.800 C 149.388 274.800,149.769 275.160,149.884 275.600 C 149.999 276.040,150.302 276.400,150.558 276.400 C 150.813 276.400,151.330 276.760,151.707 277.200 C 152.084 277.640,152.642 278.000,152.947 278.000 C 153.252 278.000,153.719 278.261,153.983 278.580 C 154.499 279.201,157.160 280.544,158.800 281.010 C 159.350 281.167,160.134 281.588,160.542 281.947 C 161.211 282.537,164.601 282.619,195.422 282.800 C 221.982 282.956,229.672 283.111,230.060 283.500 C 230.388 283.828,231.837 284.000,234.280 284.000 C 237.467 284.000,238.115 284.115,238.800 284.800 C 239.333 285.333,240.133 285.600,241.197 285.600 C 242.360 285.600,242.929 285.817,243.293 286.400 C 243.596 286.885,244.226 287.200,244.893 287.200 C 245.560 287.200,246.190 287.515,246.493 288.000 C 246.768 288.440,247.309 288.800,247.696 288.800 C 248.083 288.800,248.400 288.968,248.400 289.173 C 248.400 289.378,248.778 289.666,249.239 289.813 C 249.701 289.959,250.781 290.781,251.639 291.639 C 252.498 292.498,253.386 293.200,253.613 293.200 C 253.839 293.200,254.132 293.479,254.263 293.820 C 254.394 294.161,255.198 295.165,256.050 296.052 C 256.903 296.940,257.600 297.967,257.600 298.336 C 257.600 298.706,257.960 299.232,258.400 299.507 C 258.840 299.782,259.200 300.198,259.200 300.432 C 259.200 300.666,259.470 301.127,259.799 301.457 C 260.129 301.786,260.519 302.538,260.666 303.128 C 260.812 303.718,261.185 304.386,261.493 304.614 C 261.801 304.842,262.158 305.832,262.285 306.814 C 262.413 307.796,262.748 308.736,263.029 308.903 C 263.346 309.091,263.648 310.575,263.822 312.812 C 263.978 314.795,264.261 316.514,264.452 316.632 C 265.219 317.106,264.757 319.426,263.624 320.793 C 262.544 322.095,262.421 322.144,261.734 321.544 C 261.330 321.190,260.343 320.784,259.540 320.640 C 258.737 320.496,257.860 320.114,257.591 319.789 C 257.297 319.434,256.406 319.200,255.351 319.200 C 254.133 319.200,253.356 318.956,252.800 318.400 C 252.178 317.778,251.467 317.600,249.600 317.600 C 247.733 317.600,247.022 317.422,246.400 316.800 C 245.711 316.111,245.067 316.000,241.760 316.000 C 239.218 316.000,237.495 315.801,236.660 315.411 C 235.576 314.905,228.458 314.807,185.742 314.711 C 138.771 314.606,136.041 314.561,135.297 313.888 C 134.864 313.496,133.569 313.064,132.419 312.928 C 131.228 312.787,130.240 312.448,130.122 312.140 C 130.008 311.843,129.482 311.600,128.953 311.600 C 128.425 311.600,127.684 311.240,127.307 310.800 C 126.930 310.360,126.214 310.000,125.714 310.000 C 125.215 310.000,124.582 309.640,124.307 309.200 C 124.032 308.760,123.582 308.400,123.307 308.400 C 123.032 308.400,122.582 308.040,122.307 307.600 C 122.032 307.160,121.588 306.800,121.321 306.800 C 120.585 306.800,116.400 302.357,116.400 301.576 C 116.400 301.201,116.040 300.799,115.600 300.684 C 115.121 300.559,114.800 300.138,114.800 299.637 C 114.800 299.177,114.544 298.800,114.232 298.800 C 113.916 298.800,113.537 298.224,113.379 297.506 C 113.223 296.794,112.845 296.028,112.538 295.804 C 112.232 295.581,111.871 294.678,111.737 293.799 C 111.602 292.919,111.201 291.866,110.846 291.458 C 109.808 290.265,109.861 183.659,110.900 182.510 C 111.289 182.081,111.600 181.108,111.600 180.322 C 111.600 179.514,111.943 178.472,112.400 177.891 C 112.840 177.331,113.200 176.531,113.200 176.112 C 113.200 175.694,113.560 174.964,114.000 174.492 C 114.440 174.020,114.800 173.357,114.800 173.020 C 114.800 172.683,115.160 172.182,115.600 171.907 C 116.040 171.632,116.400 171.241,116.400 171.037 C 116.400 170.834,116.661 170.382,116.980 170.034 C 117.299 169.685,118.330 168.545,119.270 167.500 C 120.211 166.455,121.279 165.600,121.643 165.600 C 122.008 165.600,122.401 165.240,122.516 164.800 C 122.631 164.360,123.012 164.000,123.363 164.000 C 123.713 164.000,124.360 163.640,124.800 163.200 C 125.240 162.760,125.985 162.400,126.456 162.400 C 126.927 162.400,127.518 162.118,127.770 161.773 C 128.022 161.429,129.029 161.040,130.008 160.908 C 130.987 160.777,132.011 160.447,132.283 160.174 C 132.578 159.879,134.526 159.573,137.089 159.419 C 139.460 159.276,141.760 159.103,142.200 159.034 C 144.928 158.607,239.475 158.848,240.685 159.285 " stroke="none" fill="#041b24" fill-rule="evenodd"></path><path id="path2" d="M253.785 78.900 C 253.681 79.175,253.641 126.110,253.698 183.200 L 253.800 287.000 254.000 182.700 C 254.110 125.335,254.149 78.400,254.087 78.400 C 254.026 78.400,253.889 78.625,253.785 78.900 M269.600 84.985 C 269.600 85.072,270.449 85.716,271.486 86.416 C 272.523 87.116,273.139 87.408,272.854 87.065 C 272.333 86.437,269.600 84.690,269.600 84.985 M286.428 105.000 C 286.428 105.220,286.686 105.850,287.000 106.400 C 287.314 106.950,287.572 107.220,287.572 107.000 C 287.572 106.780,287.314 106.150,287.000 105.600 C 286.686 105.050,286.428 104.780,286.428 105.000 M288.101 113.000 C 288.105 113.880,288.187 114.193,288.283 113.695 C 288.379 113.198,288.375 112.478,288.275 112.095 C 288.175 111.713,288.096 112.120,288.101 113.000 M288.595 182.800 C 288.595 220.090,288.642 235.345,288.700 216.700 C 288.757 198.055,288.757 167.545,288.700 148.900 C 288.642 130.255,288.595 145.510,288.595 182.800 M134.800 160.600 C 132.970 161.305,133.678 161.310,136.200 160.609 C 137.358 160.288,137.779 160.055,137.200 160.057 C 136.650 160.059,135.570 160.303,134.800 160.600 M240.262 160.400 C 240.516 160.730,240.806 161.450,240.907 162.000 L 241.091 163.000 241.146 161.949 C 241.176 161.370,240.886 160.652,240.500 160.349 C 239.891 159.871,239.860 159.878,240.262 160.400 M240.854 166.400 C 240.819 166.950,240.696 167.850,240.583 168.400 L 240.377 169.400 240.807 168.415 C 241.043 167.874,241.165 166.974,241.078 166.415 L 240.920 165.400 240.854 166.400 M116.318 172.700 C 114.525 175.416,113.934 176.467,114.103 176.637 C 114.195 176.729,114.754 175.948,115.344 174.902 C 115.934 173.856,116.706 172.595,117.058 172.100 C 117.410 171.605,117.610 171.200,117.503 171.200 C 117.396 171.200,116.863 171.875,116.318 172.700 M112.865 179.417 C 112.195 180.888,112.323 181.202,113.047 179.865 C 113.386 179.240,113.588 178.654,113.496 178.563 C 113.405 178.471,113.121 178.856,112.865 179.417 M232.985 184.100 L 231.000 186.200 233.100 184.215 C 235.051 182.371,235.383 182.000,235.085 182.000 C 235.022 182.000,234.077 182.945,232.985 184.100 M111.449 184.615 C 111.312 184.973,111.215 185.566,111.234 185.933 C 111.253 186.300,111.427 186.069,111.621 185.420 C 111.998 184.158,111.865 183.533,111.449 184.615 M110.909 188.400 C 110.909 189.390,110.987 189.795,111.082 189.300 C 111.178 188.805,111.178 187.995,111.082 187.500 C 110.987 187.005,110.909 187.410,110.909 188.400 M216.800 191.820 C 215.580 192.170,215.322 192.340,216.000 192.350 C 216.550 192.358,217.540 192.117,218.200 191.814 C 219.677 191.138,219.174 191.140,216.800 191.820 M172.100 192.700 C 178.645 192.761,189.355 192.761,195.900 192.700 C 202.445 192.638,197.090 192.588,184.000 192.588 C 170.910 192.588,165.555 192.638,172.100 192.700 M151.482 197.207 C 150.918 197.651,149.887 198.776,149.192 199.707 L 147.928 201.400 149.158 200.000 C 149.834 199.230,150.969 198.105,151.679 197.500 C 153.166 196.232,153.013 196.003,151.482 197.207 M143.854 213.856 C 143.511 216.362,143.574 263.792,143.923 265.758 C 144.075 266.615,144.200 254.870,144.200 239.658 C 144.200 224.446,144.179 212.000,144.154 212.000 C 144.129 212.000,143.994 212.835,143.854 213.856 M288.101 253.000 C 288.105 253.880,288.187 254.193,288.283 253.695 C 288.379 253.198,288.375 252.478,288.275 252.095 C 288.175 251.713,288.096 252.120,288.101 253.000 M286.865 260.217 C 286.195 261.688,286.323 262.002,287.047 260.665 C 287.386 260.040,287.588 259.454,287.496 259.363 C 287.405 259.271,287.121 259.656,286.865 260.217 M283.900 267.414 C 282.901 268.750,283.031 269.123,284.046 267.833 C 284.511 267.242,284.826 266.695,284.746 266.618 C 284.666 266.541,284.285 266.900,283.900 267.414 M149.183 276.500 C 150.841 278.266,151.200 278.584,151.200 278.283 C 151.200 278.219,150.345 277.364,149.300 276.383 L 147.400 274.600 149.183 276.500 M163.200 283.800 C 163.970 284.097,164.960 284.341,165.400 284.343 C 165.840 284.345,165.390 284.091,164.400 283.779 C 162.139 283.067,161.333 283.081,163.200 283.800 M184.930 284.700 C 193.911 284.760,208.491 284.760,217.330 284.700 C 226.168 284.640,218.820 284.591,201.000 284.591 C 183.180 284.591,175.948 284.640,184.930 284.700 M110.909 286.400 C 110.909 287.390,110.987 287.795,111.082 287.300 C 111.178 286.805,111.178 285.995,111.082 285.500 C 110.987 285.005,110.909 285.410,110.909 286.400 M244.509 288.400 C 245.069 288.840,245.657 289.200,245.817 289.200 C 245.977 289.200,245.650 288.840,245.091 288.400 C 244.531 287.960,243.943 287.600,243.783 287.600 C 243.623 287.600,243.950 287.960,244.509 288.400 M252.383 294.100 C 253.364 295.145,254.219 296.000,254.283 296.000 C 254.584 296.000,254.266 295.641,252.500 293.983 L 250.600 292.200 252.383 294.100 M255.994 298.203 C 257.587 300.121,257.721 300.245,257.286 299.396 C 257.059 298.953,256.452 298.234,255.937 297.798 C 255.033 297.034,255.035 297.048,255.994 298.203 M116.727 300.700 C 117.383 301.525,118.422 302.650,119.036 303.200 C 119.649 303.750,119.177 303.075,117.987 301.700 C 115.596 298.939,114.860 298.355,116.727 300.700 M137.600 313.194 C 137.930 313.411,138.635 313.591,139.167 313.594 C 140.451 313.602,140.125 313.375,138.400 313.058 C 137.415 312.877,137.178 312.918,137.600 313.194 M163.469 313.900 C 176.047 313.959,196.747 313.959,209.469 313.900 C 222.191 313.841,211.900 313.793,186.600 313.793 C 161.300 313.793,150.891 313.841,163.469 313.900 M237.300 314.276 C 237.685 314.376,238.315 314.376,238.700 314.276 C 239.085 314.175,238.770 314.093,238.000 314.093 C 237.230 314.093,236.915 314.175,237.300 314.276 M259.200 319.400 C 259.750 319.714,260.380 319.972,260.600 319.972 C 260.820 319.972,260.550 319.714,260.000 319.400 C 259.450 319.086,258.820 318.828,258.600 318.828 C 258.380 318.828,258.650 319.086,259.200 319.400 " stroke="none" fill="#746424" fill-rule="evenodd"></path><path id="path3" d="M254.259 78.674 C 253.870 79.063,253.947 287.120,254.336 287.361 C 254.672 287.568,258.727 286.386,261.002 285.418 C 261.662 285.137,262.785 284.779,263.497 284.623 C 264.209 284.466,264.890 284.177,265.012 283.981 C 265.134 283.784,266.065 283.255,267.081 282.805 C 273.926 279.778,281.637 272.485,284.427 266.400 C 284.679 265.850,285.047 265.130,285.245 264.800 C 285.687 264.063,285.755 263.894,286.603 261.400 C 286.977 260.300,287.347 258.680,287.426 257.800 C 287.552 256.400,287.531 256.350,287.255 257.400 C 287.081 258.060,286.728 258.993,286.469 259.474 C 286.211 259.954,286.000 260.655,286.000 261.030 C 286.000 261.405,285.660 262.452,285.246 263.356 C 284.831 264.260,284.289 265.450,284.041 266.000 C 283.794 266.550,283.278 267.466,282.896 268.036 C 282.513 268.606,281.731 269.776,281.157 270.636 C 278.814 274.152,271.332 280.469,268.417 281.395 C 267.968 281.537,267.600 281.822,267.600 282.027 C 267.600 282.232,267.357 282.400,267.060 282.400 C 266.762 282.400,265.673 282.850,264.638 283.400 C 263.604 283.950,262.447 284.400,262.068 284.400 C 261.688 284.400,261.013 284.655,260.568 284.968 C 260.122 285.280,258.867 285.707,257.779 285.917 C 256.690 286.127,255.485 286.431,255.100 286.592 C 254.434 286.871,254.400 281.786,254.400 183.043 C 254.400 94.812,254.483 79.200,254.954 79.200 C 255.259 79.200,256.024 79.469,256.654 79.798 C 257.284 80.126,258.124 80.396,258.521 80.398 C 258.917 80.399,259.907 80.744,260.721 81.165 C 261.534 81.586,263.280 82.435,264.600 83.053 C 265.920 83.670,267.060 84.315,267.133 84.487 C 267.207 84.659,267.463 84.800,267.704 84.800 C 269.395 84.800,279.703 93.710,281.819 97.000 C 283.835 100.135,285.447 103.357,285.822 105.000 C 285.972 105.660,286.329 106.576,286.615 107.036 C 286.901 107.496,287.224 108.396,287.333 109.036 C 287.445 109.692,287.479 109.502,287.412 108.600 C 286.973 102.726,281.432 94.142,274.600 88.754 C 269.882 85.033,261.004 80.006,259.135 79.998 C 258.841 79.996,258.138 79.754,257.573 79.459 C 256.192 78.739,254.577 78.356,254.259 78.674 M287.718 183.000 C 287.718 223.040,287.852 254.720,288.015 253.400 C 288.404 250.265,288.404 115.735,288.015 112.600 C 287.852 111.280,287.718 142.960,287.718 183.000 M134.000 161.142 C 126.414 163.103,120.072 167.313,116.737 172.600 C 114.737 175.772,114.480 176.266,113.506 178.814 C 110.863 185.731,111.014 182.476,110.887 235.200 C 110.771 282.939,110.850 286.414,112.159 291.074 C 114.390 299.018,121.271 306.783,129.200 310.301 C 130.410 310.838,131.967 311.530,132.660 311.839 C 133.354 312.147,134.344 312.406,134.860 312.414 C 135.377 312.422,136.880 312.689,138.200 313.008 C 140.219 313.495,147.783 313.593,185.800 313.619 C 210.660 313.637,233.070 313.810,235.600 314.004 C 240.549 314.384,248.706 315.712,249.880 316.329 C 250.276 316.537,251.320 316.827,252.200 316.974 C 253.080 317.121,255.330 317.791,257.200 318.463 C 259.070 319.135,261.140 319.711,261.800 319.743 L 263.000 319.800 262.958 316.400 C 262.906 312.246,261.762 308.158,259.376 303.600 C 259.088 303.050,258.553 302.022,258.188 301.316 C 257.111 299.233,253.188 294.797,250.190 292.271 C 247.144 289.706,245.993 289.015,241.400 286.995 C 238.638 285.780,234.374 284.803,232.138 284.874 L 229.800 284.948 231.988 285.098 C 233.191 285.180,234.382 285.419,234.633 285.627 C 234.884 285.836,236.150 286.202,237.445 286.440 C 238.740 286.679,239.980 287.014,240.200 287.185 C 240.420 287.356,241.320 287.722,242.200 287.998 C 243.080 288.275,244.070 288.714,244.400 288.973 C 244.730 289.233,245.450 289.659,246.000 289.920 C 247.771 290.760,248.515 291.345,251.695 294.400 C 254.598 297.188,258.400 302.111,258.400 303.080 C 258.400 303.312,258.658 303.717,258.974 303.979 C 259.290 304.241,259.671 305.028,259.820 305.728 C 259.970 306.427,260.297 307.253,260.546 307.561 C 260.796 307.870,261.208 309.040,261.463 310.161 C 261.718 311.283,262.119 312.920,262.354 313.800 C 262.970 316.107,262.928 319.600,262.285 319.600 C 262.001 319.600,261.063 319.240,260.200 318.800 C 259.337 318.360,258.300 318.000,257.896 318.000 C 257.491 318.000,256.674 317.755,256.080 317.456 C 255.486 317.156,254.216 316.791,253.258 316.644 C 252.300 316.497,251.040 316.135,250.458 315.839 C 249.876 315.543,248.140 315.170,246.600 315.011 C 245.060 314.852,243.577 314.539,243.305 314.316 C 242.274 313.472,230.490 313.239,188.200 313.228 C 141.513 313.216,137.090 313.050,132.956 311.154 C 132.052 310.739,131.117 310.400,130.877 310.400 C 128.627 310.400,120.565 304.365,117.786 300.600 C 117.136 299.720,116.480 298.906,116.327 298.792 C 116.175 298.677,115.859 298.137,115.626 297.592 C 115.393 297.046,115.033 296.330,114.826 296.000 C 111.720 291.047,111.800 292.593,111.800 237.600 C 111.800 185.289,111.862 183.346,113.653 180.006 C 114.064 179.239,114.400 178.441,114.400 178.232 C 114.400 177.554,116.119 174.281,116.869 173.531 C 117.271 173.129,117.600 172.620,117.600 172.400 C 117.600 172.180,117.915 171.672,118.300 171.271 C 118.685 170.870,119.476 170.015,120.057 169.371 C 120.639 168.727,121.539 167.883,122.057 167.496 C 122.576 167.110,123.566 166.345,124.258 165.796 C 124.950 165.248,125.745 164.800,126.026 164.800 C 126.307 164.800,126.821 164.567,127.169 164.281 C 128.121 163.499,131.970 162.108,133.977 161.820 C 134.954 161.680,136.574 161.300,137.577 160.976 C 139.152 160.466,146.238 160.400,189.600 160.493 L 239.800 160.600 239.764 166.200 C 239.732 171.138,239.625 171.989,238.864 173.394 C 238.389 174.271,238.000 175.225,238.000 175.515 C 238.000 176.995,235.865 180.021,232.400 183.452 C 229.003 186.815,228.606 187.133,227.427 187.429 C 226.880 187.566,226.233 187.919,225.989 188.214 C 225.745 188.508,224.975 188.874,224.278 189.027 C 223.582 189.180,222.649 189.531,222.206 189.806 C 221.763 190.082,220.424 190.429,219.231 190.577 C 218.038 190.725,216.688 191.061,216.231 191.323 C 215.618 191.675,207.941 191.853,187.000 192.000 C 156.309 192.216,158.807 192.053,155.200 194.070 C 154.870 194.255,154.156 194.630,153.613 194.903 C 152.309 195.560,147.926 199.931,147.300 201.200 C 147.028 201.750,146.636 202.470,146.428 202.800 C 145.027 205.023,144.055 208.333,143.163 213.919 C 142.560 217.704,142.852 266.899,143.482 267.659 C 143.748 267.978,144.086 268.995,144.233 269.917 C 144.381 270.840,144.839 271.983,145.251 272.458 C 145.663 272.934,146.000 273.475,146.000 273.661 C 146.000 273.848,146.340 274.340,146.755 274.755 C 147.170 275.170,147.665 275.759,147.855 276.064 C 148.580 277.229,153.269 280.794,155.200 281.648 C 155.750 281.892,156.940 282.431,157.844 282.846 C 158.748 283.260,159.918 283.606,160.444 283.614 C 160.970 283.622,161.850 283.886,162.400 284.200 C 163.033 284.562,164.427 284.754,166.200 284.725 L 169.000 284.678 166.600 284.403 C 154.935 283.066,145.921 276.149,144.231 267.237 C 143.296 262.312,143.297 217.347,144.231 211.650 C 145.785 202.176,150.181 196.433,158.185 193.420 L 160.895 192.400 187.693 192.400 L 214.491 192.400 218.746 191.355 C 225.088 189.798,229.054 187.742,232.538 184.204 C 236.338 180.346,236.584 180.024,237.803 177.322 C 238.378 176.045,239.023 174.679,239.236 174.288 C 240.660 171.662,241.419 161.878,240.306 160.500 C 239.986 160.104,229.277 160.006,189.051 160.028 L 138.200 160.056 134.000 161.142 " stroke="none" fill="#846c2c" fill-rule="evenodd"></path><path id="path4" d="M256.433 78.546 C 257.240 79.251,258.552 79.673,258.051 79.065 C 257.749 78.699,257.224 78.400,256.884 78.400 C 256.545 78.400,256.342 78.466,256.433 78.546 M274.400 88.071 C 276.023 89.700,279.317 92.503,278.795 91.810 C 278.171 90.982,276.559 89.530,274.825 88.234 C 274.261 87.813,274.070 87.739,274.400 88.071 M279.639 92.661 C 279.797 93.082,281.088 94.815,282.524 96.534 C 283.225 97.373,283.225 97.362,282.541 96.200 C 281.766 94.883,279.380 91.974,279.639 92.661 M284.803 100.490 C 284.801 100.650,285.159 101.370,285.599 102.090 C 286.038 102.811,286.396 103.220,286.396 103.000 C 286.395 102.780,286.037 102.060,285.600 101.400 C 285.163 100.740,284.804 100.331,284.803 100.490 M288.600 182.947 C 288.600 221.832,288.717 253.232,288.860 252.724 C 289.195 251.534,289.188 114.984,288.853 113.423 C 288.714 112.775,288.600 144.061,288.600 182.947 M163.700 159.900 C 177.725 159.958,200.675 159.958,214.700 159.900 C 228.725 159.842,217.250 159.794,189.200 159.794 C 161.150 159.794,149.675 159.842,163.700 159.900 M133.600 160.600 C 132.353 161.313,132.949 161.313,134.800 160.600 C 135.717 160.247,135.924 160.055,135.400 160.045 C 134.960 160.036,134.150 160.286,133.600 160.600 M240.739 160.488 C 241.289 161.190,241.226 167.357,240.647 169.600 C 240.505 170.150,240.648 169.970,240.964 169.200 C 241.843 167.060,241.800 161.055,240.900 160.349 C 240.268 159.854,240.253 159.867,240.739 160.488 M129.776 161.830 C 129.349 162.176,129.239 162.337,129.531 162.187 C 129.824 162.037,130.544 161.769,131.131 161.591 C 131.989 161.333,132.037 161.262,131.376 161.234 C 130.924 161.215,130.204 161.483,129.776 161.830 M124.701 164.143 C 123.877 164.615,123.202 165.129,123.201 165.287 C 123.200 165.625,125.902 164.082,126.225 163.560 C 126.502 163.112,126.515 163.107,124.701 164.143 M122.095 165.866 C 121.818 165.978,121.403 166.459,121.173 166.935 C 120.816 167.676,120.833 167.714,121.296 167.200 C 121.593 166.870,122.089 166.375,122.398 166.100 C 122.987 165.576,122.929 165.531,122.095 165.866 M119.200 168.672 C 118.313 169.610,118.297 169.678,119.053 169.276 C 119.522 169.026,120.011 168.547,120.140 168.211 C 120.454 167.394,120.368 167.436,119.200 168.672 M233.153 184.035 C 231.696 185.540,230.801 186.614,231.162 186.420 C 232.230 185.849,236.891 180.762,235.900 181.249 C 235.845 181.276,234.609 182.530,233.153 184.035 M111.233 184.300 C 110.941 185.184,110.800 186.153,110.920 186.454 C 111.043 186.763,111.151 186.598,111.168 186.074 C 111.186 185.564,111.392 184.789,111.626 184.352 C 111.860 183.914,111.987 183.361,111.908 183.124 C 111.829 182.886,111.525 183.415,111.233 184.300 M110.594 237.400 C 110.594 264.900,110.642 276.091,110.700 262.269 C 110.758 248.447,110.758 225.947,110.700 212.269 C 110.642 198.591,110.594 209.900,110.594 237.400 M223.600 190.200 C 223.050 190.514,222.780 190.772,223.000 190.772 C 223.220 190.772,223.850 190.514,224.400 190.200 C 224.950 189.886,225.220 189.628,225.000 189.628 C 224.780 189.628,224.150 189.886,223.600 190.200 M218.200 191.814 C 217.540 192.117,217.270 192.366,217.600 192.368 C 217.930 192.370,218.650 192.114,219.200 191.800 C 220.465 191.077,219.789 191.087,218.200 191.814 M209.300 192.694 C 210.345 192.776,212.055 192.776,213.100 192.694 C 214.145 192.612,213.290 192.544,211.200 192.544 C 209.110 192.544,208.255 192.612,209.300 192.694 M159.000 193.414 C 157.385 194.154,158.351 194.155,160.054 193.416 C 160.794 193.094,161.130 192.839,160.800 192.848 C 160.470 192.857,159.660 193.112,159.000 193.414 M154.305 195.343 C 153.482 195.815,152.728 196.412,152.629 196.670 C 152.529 196.929,153.247 196.601,154.224 195.942 C 155.201 195.283,156.000 194.666,156.000 194.572 C 156.000 194.360,156.103 194.313,154.305 195.343 M145.704 206.284 C 145.431 206.866,145.282 207.415,145.372 207.505 C 145.612 207.746,146.473 206.018,146.326 205.591 C 146.257 205.390,145.977 205.702,145.704 206.284 M144.257 213.659 C 143.917 216.910,143.982 263.686,144.330 266.000 C 144.478 266.990,144.600 255.065,144.600 239.500 C 144.600 223.935,144.581 211.200,144.557 211.200 C 144.533 211.200,144.398 212.306,144.257 213.659 M282.796 269.697 C 281.626 271.456,281.536 271.782,282.546 270.600 C 283.437 269.557,283.837 268.800,283.496 268.800 C 283.439 268.800,283.124 269.204,282.796 269.697 M277.986 275.421 C 276.784 276.643,276.070 277.522,276.400 277.374 C 276.986 277.112,280.680 273.200,280.343 273.200 C 280.249 273.200,279.189 274.200,277.986 275.421 M149.400 276.400 C 150.483 277.500,151.460 278.400,151.570 278.400 C 151.680 278.400,150.883 277.500,149.800 276.400 C 148.717 275.300,147.740 274.400,147.630 274.400 C 147.520 274.400,148.317 275.300,149.400 276.400 M272.117 280.108 C 269.471 281.875,268.898 282.651,271.373 281.116 C 272.915 280.159,275.145 278.416,274.800 278.438 C 274.690 278.445,273.482 279.196,272.117 280.108 M163.800 283.600 C 164.996 284.114,165.995 284.114,165.200 283.600 C 164.870 283.387,164.240 283.222,163.800 283.234 L 163.000 283.256 163.800 283.600 M181.470 284.300 C 190.089 284.360,204.309 284.360,213.070 284.300 C 221.832 284.240,214.780 284.191,197.400 284.190 C 180.020 284.190,172.852 284.240,181.470 284.300 M233.700 284.676 C 234.085 284.776,234.715 284.776,235.100 284.676 C 235.485 284.575,235.170 284.493,234.400 284.493 C 233.630 284.493,233.315 284.575,233.700 284.676 M260.800 285.833 C 260.177 286.179,260.035 286.390,260.424 286.394 C 260.766 286.397,261.396 286.136,261.824 285.813 C 262.794 285.078,262.137 285.092,260.800 285.833 M110.845 288.600 C 110.836 289.040,111.086 289.850,111.400 290.400 C 112.113 291.647,112.113 291.051,111.400 289.200 C 111.047 288.283,110.855 288.076,110.845 288.600 M247.831 290.090 C 248.914 290.799,251.229 292.816,252.975 294.573 C 256.134 297.750,256.724 298.015,254.018 295.041 C 252.301 293.153,246.921 288.800,246.305 288.800 C 246.062 288.800,246.749 289.380,247.831 290.090 M118.200 302.800 C 119.059 303.680,119.852 304.400,119.962 304.400 C 120.072 304.400,119.459 303.680,118.600 302.800 C 117.741 301.920,116.948 301.200,116.838 301.200 C 116.728 301.200,117.341 301.920,118.200 302.800 M260.403 305.215 C 260.401 305.334,260.760 306.137,261.200 307.000 C 261.640 307.863,261.999 308.306,261.997 307.985 C 261.996 307.663,261.637 306.860,261.200 306.200 C 260.763 305.540,260.404 305.097,260.403 305.215 M122.644 306.935 C 122.836 307.404,126.411 309.732,126.606 309.516 C 126.663 309.452,125.752 308.741,124.581 307.935 C 123.410 307.130,122.538 306.680,122.644 306.935 M262.063 309.400 C 262.062 309.620,262.303 310.430,262.600 311.200 C 262.897 311.970,263.145 312.330,263.152 312.000 C 263.158 311.670,262.917 310.860,262.614 310.200 C 262.312 309.540,262.064 309.180,262.063 309.400 M137.000 313.378 C 137.660 313.700,138.830 313.950,139.600 313.932 L 141.000 313.900 139.400 313.589 C 138.520 313.418,137.350 313.168,136.800 313.034 C 135.958 312.830,135.990 312.884,137.000 313.378 M263.320 315.600 C 263.320 316.810,263.395 317.305,263.487 316.700 C 263.578 316.095,263.578 315.105,263.487 314.500 C 263.395 313.895,263.320 314.390,263.320 315.600 M231.300 314.294 C 232.345 314.376,234.055 314.376,235.100 314.294 C 236.145 314.212,235.290 314.144,233.200 314.144 C 231.110 314.144,230.255 314.212,231.300 314.294 M239.200 314.800 C 239.750 314.976,240.560 315.120,241.000 315.120 C 241.633 315.120,241.592 315.054,240.800 314.800 C 240.250 314.624,239.440 314.480,239.000 314.480 C 238.367 314.480,238.408 314.546,239.200 314.800 M248.600 316.614 C 249.260 316.917,250.160 317.164,250.600 317.164 C 251.040 317.165,250.680 316.905,249.800 316.588 C 247.792 315.865,247.000 315.882,248.600 316.614 " stroke="none" fill="#4c4424" fill-rule="evenodd"></path><path id="path5" d="M253.397 183.000 C 253.397 240.420,253.443 263.851,253.500 235.068 C 253.557 206.285,253.557 159.305,253.500 130.668 C 253.443 102.031,253.397 125.580,253.397 183.000 M288.638 112.600 C 288.970 114.584,289.202 114.904,289.194 113.367 C 289.191 112.725,289.004 111.930,288.779 111.600 C 288.486 111.170,288.446 111.454,288.638 112.600 M289.395 182.800 C 289.395 220.090,289.442 235.345,289.500 216.700 C 289.557 198.055,289.557 167.545,289.500 148.900 C 289.442 130.255,289.395 145.510,289.395 182.800 M136.305 159.883 C 136.802 159.979,137.522 159.975,137.905 159.875 C 138.287 159.775,137.880 159.696,137.000 159.701 C 136.120 159.705,135.807 159.787,136.305 159.883 M241.737 164.600 C 241.739 166.360,241.809 167.030,241.893 166.089 C 241.978 165.149,241.977 163.709,241.891 162.889 C 241.805 162.070,241.736 162.840,241.737 164.600 M241.246 168.267 C 241.221 168.524,241.084 169.064,240.941 169.467 C 240.740 170.036,240.794 170.097,241.179 169.742 C 241.452 169.491,241.589 168.951,241.484 168.542 C 241.379 168.134,241.272 168.010,241.246 168.267 M117.599 170.100 C 117.010 170.904,116.913 171.184,117.345 170.833 C 118.001 170.300,118.993 168.800,118.689 168.800 C 118.613 168.800,118.122 169.385,117.599 170.100 M110.493 186.400 C 110.493 187.170,110.575 187.485,110.676 187.100 C 110.776 186.715,110.776 186.085,110.676 185.700 C 110.575 185.315,110.493 185.630,110.493 186.400 M223.400 190.614 C 222.740 190.917,222.481 191.172,222.824 191.182 C 223.166 191.192,223.796 190.936,224.224 190.613 C 225.172 189.896,224.969 189.896,223.400 190.614 M219.200 191.800 C 218.620 192.132,218.452 192.372,218.800 192.373 C 219.130 192.374,219.749 192.110,220.176 191.787 C 221.164 191.040,220.515 191.048,219.200 191.800 M215.505 192.683 C 216.002 192.779,216.722 192.775,217.105 192.675 C 217.487 192.575,217.080 192.496,216.200 192.501 C 215.320 192.505,215.007 192.587,215.505 192.683 M144.588 239.800 C 144.588 253.660,144.639 259.272,144.700 252.271 C 144.761 245.270,144.761 233.930,144.700 227.071 C 144.638 220.212,144.588 225.940,144.588 239.800 M288.849 252.400 C 288.816 252.730,288.689 253.450,288.567 254.000 C 288.375 254.864,288.407 254.903,288.799 254.288 C 289.048 253.897,289.175 253.177,289.081 252.688 C 288.986 252.200,288.882 252.070,288.849 252.400 M165.200 283.600 C 165.530 283.813,166.070 283.988,166.400 283.988 C 166.933 283.988,166.933 283.945,166.400 283.600 C 166.070 283.387,165.530 283.212,165.200 283.212 C 164.667 283.212,164.667 283.255,165.200 283.600 M229.500 284.282 C 229.995 284.378,230.805 284.378,231.300 284.282 C 231.795 284.187,231.390 284.109,230.400 284.109 C 229.410 284.109,229.005 284.187,229.500 284.282 M253.018 294.018 C 254.108 295.237,255.081 296.176,255.181 296.103 C 255.280 296.031,254.389 295.033,253.199 293.886 L 251.036 291.800 253.018 294.018 M118.000 302.925 C 118.000 302.994,118.585 303.579,119.300 304.225 L 120.600 305.400 119.425 304.100 C 118.330 302.888,118.000 302.616,118.000 302.925 M120.876 305.566 C 120.968 305.877,121.484 306.406,122.022 306.741 C 122.780 307.214,122.865 307.221,122.400 306.775 C 122.070 306.459,121.554 305.930,121.254 305.600 C 120.815 305.117,120.741 305.110,120.876 305.566 M136.000 313.400 C 136.550 313.714,137.270 313.971,137.600 313.970 C 137.930 313.969,137.594 313.706,136.854 313.384 C 135.151 312.645,134.694 312.653,136.000 313.400 M161.700 314.300 C 174.185 314.359,194.615 314.359,207.100 314.300 C 219.585 314.241,209.370 314.193,184.400 314.193 C 159.430 314.193,149.215 314.241,161.700 314.300 M239.400 315.181 C 240.168 315.529,242.310 315.756,241.967 315.453 C 241.875 315.372,241.080 315.196,240.200 315.062 C 239.085 314.893,238.842 314.929,239.400 315.181 M247.776 316.578 C 248.204 316.920,248.834 317.186,249.176 317.168 C 249.715 317.141,249.718 317.107,249.200 316.914 C 248.870 316.792,248.240 316.526,247.800 316.324 C 247.013 315.962,247.012 315.966,247.776 316.578 " stroke="none" fill="#383c24" fill-rule="evenodd"></path><path id="path6" d="M275.167 88.145 C 275.700 88.801,277.200 89.793,277.200 89.489 C 277.200 89.413,276.615 88.922,275.900 88.399 C 275.096 87.810,274.816 87.713,275.167 88.145 M289.301 113.800 C 289.305 114.680,289.387 114.993,289.483 114.495 C 289.579 113.998,289.575 113.278,289.475 112.895 C 289.375 112.513,289.296 112.920,289.301 113.800 M167.500 159.500 C 180.755 159.558,202.445 159.558,215.700 159.500 C 228.955 159.441,218.110 159.394,191.600 159.394 C 165.090 159.394,154.245 159.441,167.500 159.500 M240.900 160.032 C 241.285 160.256,241.614 160.746,241.632 161.120 C 241.652 161.558,241.737 161.617,241.869 161.287 C 242.109 160.691,241.311 159.594,240.651 159.612 C 240.403 159.619,240.515 159.808,240.900 160.032 M174.329 193.100 C 180.999 193.161,191.799 193.161,198.329 193.100 C 204.858 193.038,199.400 192.988,186.200 192.988 C 173.000 192.988,167.658 193.038,174.329 193.100 M144.901 212.600 C 144.905 213.480,144.987 213.793,145.083 213.295 C 145.179 212.798,145.175 212.078,145.075 211.695 C 144.975 211.313,144.896 211.720,144.901 212.600 M289.309 252.000 C 289.309 252.990,289.387 253.395,289.482 252.900 C 289.578 252.405,289.578 251.595,289.482 251.100 C 289.387 250.605,289.309 251.010,289.309 252.000 M144.893 266.800 C 144.893 267.570,144.975 267.885,145.076 267.500 C 145.176 267.115,145.176 266.485,145.076 266.100 C 144.975 265.715,144.893 266.030,144.893 266.800 M232.700 284.282 C 233.195 284.378,234.005 284.378,234.500 284.282 C 234.995 284.187,234.590 284.109,233.600 284.109 C 232.610 284.109,232.205 284.187,232.700 284.282 M238.200 315.200 C 238.640 315.389,239.270 315.544,239.600 315.544 C 239.978 315.544,239.904 315.417,239.400 315.200 C 238.960 315.011,238.330 314.856,238.000 314.856 C 237.622 314.856,237.696 314.983,238.200 315.200 M263.701 318.200 C 263.705 319.080,263.787 319.393,263.883 318.895 C 263.979 318.398,263.975 317.678,263.875 317.295 C 263.775 316.913,263.696 317.320,263.701 318.200 " stroke="none" fill="#242e24" fill-rule="evenodd"></path><path id="path7" d="M110.194 237.600 C 110.194 264.330,110.242 275.265,110.300 261.900 C 110.358 248.535,110.358 226.665,110.300 213.300 C 110.242 199.935,110.194 210.870,110.194 237.600 M144.989 239.800 C 144.989 254.100,145.039 259.892,145.100 252.671 C 145.161 245.450,145.161 233.750,145.100 226.671 C 145.039 219.592,144.989 225.500,144.989 239.800 M288.900 254.900 C 288.470 256.075,288.480 256.126,289.012 255.424 C 289.521 254.752,289.821 253.600,289.488 253.600 C 289.426 253.600,289.161 254.185,288.900 254.900 M167.514 283.672 C 167.891 283.821,181.610 283.916,198.000 283.882 C 214.390 283.848,224.740 283.771,221.000 283.712 C 204.721 283.452,166.888 283.424,167.514 283.672 " stroke="none" fill="#1c2c24" fill-rule="evenodd"></path><path id="path8" d="M252.997 183.000 C 252.997 240.420,253.043 263.851,253.100 235.068 C 253.157 206.285,253.157 159.305,253.100 130.668 C 253.043 102.031,252.997 125.580,252.997 183.000 M264.778 81.241 C 265.317 81.456,265.996 81.830,266.288 82.073 C 266.697 82.412,266.764 82.372,266.581 81.896 C 266.451 81.557,265.952 81.174,265.472 81.045 C 264.123 80.683,263.688 80.806,264.778 81.241 M268.456 83.166 C 268.975 83.587,269.490 83.842,269.599 83.733 C 269.834 83.500,268.415 82.400,267.879 82.400 C 267.677 82.400,267.936 82.745,268.456 83.166 M273.362 86.342 C 274.209 87.295,274.400 87.382,274.400 86.814 C 274.400 86.602,273.995 86.216,273.500 85.956 C 272.605 85.486,272.604 85.488,273.362 86.342 M280.400 92.800 C 281.075 93.460,281.727 94.000,281.848 94.000 C 281.969 94.000,281.558 93.460,280.935 92.800 C 280.312 92.140,279.661 91.600,279.488 91.600 C 279.314 91.600,279.725 92.140,280.400 92.800 M285.200 100.304 C 285.200 100.471,285.571 100.839,286.024 101.122 C 286.785 101.597,286.814 101.574,286.410 100.818 C 285.985 100.024,285.200 99.690,285.200 100.304 M287.300 104.432 C 287.685 104.656,288.021 105.236,288.046 105.720 C 288.084 106.426,288.130 106.457,288.279 105.881 C 288.484 105.091,287.763 103.993,287.051 104.012 C 286.803 104.019,286.915 104.208,287.300 104.432 M288.400 109.834 C 288.400 110.057,288.625 110.465,288.900 110.740 C 289.295 111.135,289.443 126.329,289.604 182.920 L 289.808 254.600 289.804 182.714 C 289.800 114.788,289.761 110.790,289.100 110.129 C 288.715 109.744,288.400 109.611,288.400 109.834 M156.400 159.094 C 191.919 159.363,240.677 159.370,240.262 159.106 C 240.008 158.944,217.930 158.852,191.200 158.901 C 164.470 158.949,148.810 159.036,156.400 159.094 M137.891 159.489 C 138.601 159.577,139.861 159.579,140.691 159.492 C 141.521 159.405,140.940 159.333,139.400 159.331 C 137.860 159.329,137.181 159.400,137.891 159.489 M132.412 159.984 C 131.459 160.587,132.109 160.714,133.200 160.139 C 133.751 159.848,133.931 159.612,133.600 159.612 C 133.270 159.612,132.735 159.780,132.412 159.984 M242.150 164.600 C 242.151 167.020,242.216 167.958,242.296 166.685 C 242.376 165.412,242.375 163.432,242.294 162.285 C 242.214 161.138,242.149 162.180,242.150 164.600 M124.977 162.967 C 124.550 163.279,124.291 163.624,124.401 163.733 C 124.510 163.842,125.025 163.587,125.544 163.166 C 126.631 162.285,126.143 162.115,124.977 162.967 M120.480 166.080 C 120.216 166.344,120.000 166.704,120.000 166.880 C 120.000 167.469,120.602 167.208,121.107 166.400 C 121.654 165.524,121.245 165.315,120.480 166.080 M118.602 167.998 C 118.203 168.439,118.062 168.800,118.289 168.800 C 118.792 168.800,119.790 167.657,119.521 167.388 C 119.415 167.282,119.002 167.556,118.602 167.998 M241.281 170.418 C 240.972 170.913,240.946 171.200,241.209 171.200 C 241.438 171.200,241.732 170.922,241.862 170.583 C 242.222 169.645,241.833 169.534,241.281 170.418 M113.696 174.795 C 112.971 175.955,113.089 176.111,114.000 175.200 C 114.848 174.352,114.993 174.000,114.496 174.000 C 114.329 174.000,113.969 174.358,113.696 174.795 M110.128 186.800 C 110.128 188.230,110.201 188.815,110.289 188.100 C 110.378 187.385,110.378 186.215,110.289 185.500 C 110.201 184.785,110.128 185.370,110.128 186.800 M220.400 191.971 C 220.400 192.175,220.085 192.424,219.700 192.524 C 219.109 192.679,219.102 192.714,219.651 192.754 C 220.009 192.779,220.526 192.530,220.800 192.200 C 221.144 191.785,221.159 191.600,220.849 191.600 C 220.602 191.600,220.400 191.767,220.400 191.971 M212.291 193.089 C 213.001 193.177,214.261 193.179,215.091 193.092 C 215.921 193.005,215.340 192.933,213.800 192.931 C 212.260 192.929,211.581 193.000,212.291 193.089 M161.548 193.732 C 160.253 194.308,208.672 194.187,210.105 193.611 C 210.650 193.392,201.528 193.254,186.800 193.258 C 169.217 193.263,162.312 193.393,161.548 193.732 M156.400 195.200 C 155.850 195.630,155.597 195.986,155.839 195.991 C 156.080 195.996,156.693 195.640,157.200 195.200 C 158.387 194.170,157.716 194.170,156.400 195.200 M151.200 199.000 C 150.454 199.770,149.955 200.400,150.091 200.400 C 150.366 200.400,152.800 198.037,152.800 197.769 C 152.800 197.422,152.523 197.635,151.200 199.000 M148.000 203.105 C 148.000 203.346,147.717 203.826,147.371 204.171 C 147.026 204.517,146.929 204.800,147.157 204.800 C 147.664 204.800,148.556 203.223,148.232 202.899 C 148.105 202.771,148.000 202.864,148.000 203.105 M145.881 207.837 C 145.486 208.367,145.329 208.800,145.532 208.800 C 146.051 208.800,146.904 207.704,146.738 207.250 C 146.662 207.043,146.277 207.307,145.881 207.837 M288.871 255.635 C 288.581 256.099,288.421 256.555,288.515 256.649 C 288.793 256.926,289.688 255.664,289.537 255.210 C 289.460 254.980,289.160 255.171,288.871 255.635 M288.000 260.602 C 288.000 261.006,287.695 261.674,287.322 262.086 C 286.685 262.790,286.686 262.819,287.326 262.573 C 288.030 262.303,288.686 260.553,288.248 260.115 C 288.112 259.978,288.000 260.197,288.000 260.602 M285.887 265.832 C 285.350 266.549,285.318 266.730,285.756 266.561 C 286.076 266.439,286.446 266.056,286.578 265.712 C 286.952 264.737,286.669 264.786,285.887 265.832 M284.511 268.500 C 283.729 269.511,283.463 270.132,283.936 269.840 C 284.410 269.547,285.357 268.000,285.063 268.000 C 284.972 268.000,284.724 268.225,284.511 268.500 M145.200 269.400 C 145.200 269.510,145.560 269.960,146.000 270.400 C 146.899 271.299,147.057 270.972,146.243 269.900 C 145.736 269.231,145.200 268.975,145.200 269.400 M278.865 275.584 C 277.172 277.195,276.800 277.757,277.700 277.347 C 278.227 277.108,281.023 274.000,280.712 274.000 C 280.612 274.000,279.781 274.713,278.865 275.584 M152.999 278.398 C 153.134 278.617,153.640 279.003,154.122 279.256 C 154.994 279.713,154.995 279.710,154.238 278.858 C 153.475 277.998,152.536 277.650,152.999 278.398 M155.852 280.191 C 155.980 280.526,156.336 280.800,156.643 280.800 C 157.424 280.800,157.336 280.501,156.409 280.005 C 155.764 279.659,155.661 279.694,155.852 280.191 M272.200 281.200 C 271.802 281.640,271.594 282.000,271.738 282.000 C 271.882 282.000,272.360 281.640,272.800 281.200 C 273.240 280.760,273.448 280.400,273.262 280.400 C 273.076 280.400,272.598 280.760,272.200 281.200 M269.400 282.800 C 268.989 283.254,268.876 283.600,269.138 283.600 C 269.392 283.600,269.600 283.414,269.600 283.187 C 269.600 282.960,270.005 282.611,270.500 282.412 C 271.086 282.177,271.177 282.042,270.762 282.025 C 270.411 282.011,269.798 282.360,269.400 282.800 M165.200 282.945 C 168.744 283.625,230.620 284.060,229.961 283.400 C 229.713 283.152,224.197 282.962,215.480 282.901 C 174.665 282.614,163.522 282.623,165.200 282.945 M266.545 284.200 C 266.418 284.530,266.019 284.814,265.657 284.832 C 265.150 284.856,265.129 284.914,265.565 285.087 C 265.876 285.210,266.326 285.045,266.565 284.720 C 266.804 284.395,267.270 284.025,267.600 283.896 C 268.074 283.712,268.050 283.657,267.487 283.632 C 267.096 283.614,266.671 283.870,266.545 284.200 M237.366 284.417 C 238.007 284.609,238.679 284.999,238.860 285.283 C 239.101 285.663,239.189 285.671,239.194 285.314 C 239.201 284.717,237.909 283.988,236.926 284.034 C 236.501 284.055,236.683 284.213,237.366 284.417 M263.200 285.472 C 263.200 285.695,262.795 286.073,262.300 286.312 C 261.655 286.623,261.585 286.754,262.051 286.773 C 262.790 286.804,263.847 285.714,263.457 285.324 C 263.316 285.182,263.200 285.249,263.200 285.472 M110.120 288.000 C 110.120 289.210,110.195 289.705,110.287 289.100 C 110.378 288.495,110.378 287.505,110.287 286.900 C 110.195 286.295,110.120 286.790,110.120 288.000 M250.000 290.517 C 250.330 290.803,250.847 291.298,251.149 291.618 C 251.619 292.116,251.635 292.077,251.260 291.347 C 251.019 290.878,250.502 290.383,250.111 290.246 C 249.492 290.030,249.478 290.065,250.000 290.517 M255.528 295.836 C 256.322 297.011,257.600 298.298,257.600 297.922 C 257.600 297.825,256.946 297.038,256.147 296.173 C 254.976 294.906,254.856 294.840,255.528 295.836 M117.209 303.067 C 118.500 304.514,120.906 306.800,121.138 306.800 C 121.475 306.800,117.407 302.503,116.809 302.228 C 116.485 302.078,116.665 302.456,117.209 303.067 M263.709 314.000 C 263.709 314.990,263.787 315.395,263.882 314.900 C 263.978 314.405,263.978 313.595,263.882 313.100 C 263.787 312.605,263.709 313.010,263.709 314.000 M133.800 313.088 C 134.240 313.195,134.905 313.552,135.277 313.882 C 135.649 314.212,136.189 314.388,136.477 314.273 C 136.838 314.128,136.798 314.053,136.349 314.032 C 135.991 314.014,135.474 313.730,135.200 313.400 C 134.926 313.070,134.319 312.821,133.851 312.846 C 133.043 312.890,133.041 312.903,133.800 313.088 M164.531 314.700 C 177.693 314.758,199.113 314.758,212.131 314.700 C 225.149 314.641,214.380 314.594,188.200 314.594 C 162.020 314.594,151.369 314.641,164.531 314.700 M236.265 315.191 C 236.521 315.466,237.601 315.754,238.665 315.831 C 240.447 315.960,240.490 315.943,239.200 315.620 C 238.430 315.428,237.350 315.140,236.800 314.980 C 236.011 314.752,235.898 314.797,236.265 315.191 M246.000 316.324 C 246.000 316.946,247.500 317.688,248.321 317.472 C 248.889 317.322,248.874 317.285,248.231 317.246 C 247.809 317.221,247.134 316.902,246.731 316.538 C 246.319 316.165,246.000 316.071,246.000 316.324 M263.939 318.367 C 263.830 319.905,263.909 320.243,264.300 319.918 C 264.874 319.440,264.979 316.958,264.439 316.624 C 264.240 316.501,264.015 317.285,263.939 318.367 M252.400 317.924 C 252.400 318.546,253.900 319.288,254.721 319.072 C 255.289 318.922,255.274 318.885,254.631 318.846 C 254.209 318.821,253.534 318.502,253.131 318.138 C 252.719 317.765,252.400 317.671,252.400 317.924 M261.781 321.552 C 262.340 322.111,262.460 322.111,263.019 321.552 C 263.578 320.994,263.517 320.933,262.400 320.933 C 261.283 320.933,261.222 320.994,261.781 321.552 " stroke="none" fill="#142424" fill-rule="evenodd"></path></g></svg>